<svg id="Layer_1" data-name="Layer 1" xmlns="http://www.w3.org/2000/svg" viewBox="0 0 84.391 52.612"><defs><style>.cls-1{fill:#fff;}</style></defs><title>ncarucar-stacked-white</title><path class="cls-1" d="M18.509,33.616l.029,8.08a30.725,30.725,0,0,1-.346,6.361c-1,3.721-5.456,4.535-8.772,4.547-3.38.011-7.747-.773-8.867-4.455a32.881,32.881,0,0,1-.36-6.327L.164,33.68A16.111,16.111,0,0,0,0,30.825l3.564-.013A15.221,15.221,0,0,0,3.39,33.7l.039,10.937a10.741,10.741,0,0,0,.192,2.273c.654,2.455,3.269,2.968,5.788,2.96,2.458-.01,5.1-.51,5.737-2.939a9.657,9.657,0,0,0,.207-2.212L15.314,33.69a18.69,18.69,0,0,0-.2-2.919l3.533-.013a15.961,15.961,0,0,0-.143,2.858"/><path class="cls-1" d="M32.14,2.733c-4.823.018-7.8,2.209-7.776,7.8.022,5.808,3.659,9.389,9.465,9.368A11.892,11.892,0,0,0,40.212,18l.012,3.072A14.47,14.47,0,0,1,33.5,22.606c-6.79.023-12.365-3.89-12.393-12.062C21.082,3.172,25.832.021,31.668,0a33.474,33.474,0,0,1,8.515,1.291L40.2,4.579c-1.6-1.132-5.382-1.856-8.055-1.846"/><path class="cls-1" d="M52.516,3.8C51.31,6.6,50.148,9.315,48.9,12.115l7.557-.026c-1.3-2.792-2.645-5.5-3.945-8.292M60.357,21.8a8.374,8.374,0,0,0-.967-2.732c-.669-1.5-1.375-2.841-2.045-4.345l-9.436.034c-.657,1.538-1.316,2.883-2.011,4.391a14.526,14.526,0,0,0-.875,2.706l-4.041.015a10.32,10.32,0,0,0,1.539-2.893c.8-1.878,6.18-13.939,6.984-15.817A11.486,11.486,0,0,0,50.454.64L54.849.625a9.981,9.981,0,0,0,.894,2.484c.817,1.872,6.131,13.8,6.986,15.706,1.226,2.667,1.719,2.974,1.719,2.974Z"/><path class="cls-1" d="M72.454,2.467c-1.18,0-2.322.162-3.575.289L68.9,9.587c.775.058,1.475.118,2.249.115,3.244-.012,6-.647,5.994-3.811-.009-2.612-1.817-3.435-4.693-3.424m6.961,19.268c-.518-.52-1.072-1.041-1.627-1.561l-8.874-7.8.023,6.851a8.707,8.707,0,0,0,.268,2.549l-3.618.014a7.69,7.69,0,0,0,.213-2.552L65.742,3.106A17.417,17.417,0,0,0,65.548.588C68.314.578,70.713.2,73.4.19c4.129-.015,7.23,1.449,7.243,5.2.015,3.809-2.853,6.094-7.718,6.694,2.775,2.356,5.547,4.773,8.32,7.159a24.988,24.988,0,0,0,3.142,2.477Z"/><path class="cls-1" d="M14.216,21.874S6.906,9.413,3.346,4.472V19.235A11.07,11.07,0,0,0,3.5,21.874H0A11.85,11.85,0,0,0,.185,19.2V3.766A20.232,20.232,0,0,0,.031.7H4.573S14.124,16.38,15.413,18.16V3.643A16.446,16.446,0,0,0,15.259.7h3.5a15.314,15.314,0,0,0-.184,2.946V18.775c0,2.792.123,2.792.184,3.1Z"/><path class="cls-1" d="M32.14,32.739c-4.823.018-7.8,2.209-7.776,7.8.022,5.807,3.659,9.388,9.465,9.367a11.891,11.891,0,0,0,6.383-1.9l.012,3.072a14.481,14.481,0,0,1-6.723,1.53c-6.79.023-12.365-3.889-12.393-12.062-.026-7.372,4.724-10.522,10.56-10.544A33.474,33.474,0,0,1,40.183,31.3l.012,3.287c-1.6-1.132-5.382-1.855-8.055-1.846"/><path class="cls-1" d="M52.516,33.8c-1.206,2.8-2.368,5.519-3.612,8.318l7.557-.026c-1.3-2.792-2.645-5.5-3.945-8.292m7.841,18.006a8.365,8.365,0,0,0-.967-2.731c-.669-1.5-1.375-2.842-2.045-4.345l-9.436.033c-.657,1.539-1.316,2.883-2.011,4.391a14.526,14.526,0,0,0-.875,2.706l-4.041.015a10.32,10.32,0,0,0,1.539-2.893c.8-1.877,6.18-13.939,6.984-15.817a11.486,11.486,0,0,0,.949-2.522l4.395-.015a9.981,9.981,0,0,0,.894,2.484c.817,1.872,6.131,13.8,6.986,15.706,1.226,2.668,1.719,2.974,1.719,2.974Z"/><path class="cls-1" d="M72.454,32.473c-1.18,0-2.322.162-3.575.289l.025,6.832c.775.058,1.475.117,2.249.114,3.244-.012,6-.647,5.994-3.811-.009-2.612-1.817-3.435-4.693-3.424m6.961,19.268c-.518-.52-1.072-1.04-1.627-1.561q-4.437-3.9-8.874-7.8l.023,6.852a8.7,8.7,0,0,0,.268,2.548l-3.618.014A7.687,7.687,0,0,0,65.8,49.24l-.058-16.128a17.444,17.444,0,0,0-.194-2.518c2.766-.01,5.165-.388,7.856-.4,4.129-.015,7.23,1.449,7.243,5.2.015,3.809-2.853,6.094-7.718,6.694,2.775,2.356,5.547,4.773,8.32,7.159a24.893,24.893,0,0,0,3.142,2.477Z"/></svg>